<?xml version="1.0" encoding="UTF-8"?>
<svg id="Layer_2" data-name="Layer 2" xmlns="http://www.w3.org/2000/svg" viewBox="0 0 22 26">
  <defs>
    <style>
      .cls-1 {
        fill: #29b6f6;
      }

      .cls-2 {
        fill: #7c4dff;
      }

      .cls-3 {
        fill: #e64a19;
      }

      .cls-4 {
        fill: #66bb6a;
      }

      .cls-5 {
        fill: #ff7043;
      }
    </style>
  </defs>
  <g id="container-grid">
    <g>
      <path class="cls-2" d="M11.29,18.84H5.64c-3.12,0-5.64-2.11-5.64-4.71H0c0-2.6,2.53-4.71,5.64-4.71h5.64v9.42Z"/>
      <g>
        <path class="cls-3" d="M12.05,8.67H5.93C2.97,8.67,.58,6.73,.58,4.33H.58C.58,1.94,2.97,0,5.93,0h6.12V8.67Z"/>
        <path class="cls-4" d="M5.93,26h0c-2.96,0-5.36-1.94-5.36-4.33H.58c0-2.39,2.4-4.33,5.36-4.33h5.36v4.33c0,2.39-2.4,4.33-5.36,4.33Z"/>
        <path class="cls-5" d="M16.64,8.67h-5.36V0h5.36c2.96,0,5.36,1.94,5.36,4.33h0c0,2.39-2.4,4.33-5.36,4.33Z"/>
        <ellipse class="cls-1" cx="16.64" cy="13" rx="5.36" ry="4.33"/>
      </g>
    </g>
  </g>
</svg>