<?xml version="1.0" encoding="UTF-8"?>
<svg id="Layer_2" data-name="Layer 2" xmlns="http://www.w3.org/2000/svg" viewBox="0 0 26 26">
  <g id="container-grid">
    <path d="M25.83,.18c-.12-.12-.29-.18-.47-.18H.63C.46,0,.28,.07,.17,.18,.04,.3-.01,.46,0,.62L2.23,22.9c.02,.23,.21,.43,.46,.49l10.14,2.58c.05,.02,.11,.02,.17,.02s.12,0,.17-.02l10.14-2.58c.25-.07,.43-.26,.46-.49L26,.62c.02-.16-.04-.32-.16-.43Zm-5.33,7.68H8.59l.28,2.88h11.34l-.85,8.5-6.37,1.72-.06-.02-6.29-1.7-.34-3.46h3.08l.13,1.34,3.52,.66,3.45-.66,.37-3.64H6.07l-.84-8.37h15.55l-.27,2.75Z"/>
  </g>
</svg>