<?xml version="1.0" encoding="UTF-8"?>
<svg id="Layer_2" data-name="Layer 2" xmlns="http://www.w3.org/2000/svg" viewBox="0 0 27.07 27.07">
  <defs>
    <style>
      .cls-1 {
        fill: none;
        stroke: #18193f;
        stroke-linecap: round;
        stroke-miterlimit: 20.83;
        stroke-width: 2.14px;
      }

      .cls-2 {
        fill: #18193f;
      }

      .cls-3 {
        fill: #ffe082;
      }
    </style>
  </defs>
  <g id="container-grid">
    <g>
      <path class="cls-1" d="M24.58,8.99v12.74c0,1.57-1.28,2.85-2.85,2.85H3.92c-1.57,0-2.85-1.28-2.85-2.85v-1.25"/>
      <g>
        <path class="cls-3" d="M7.04,27.07c-1.52,0-2.76-1.24-2.76-2.76V7.04c0-1.52,1.24-2.76,2.76-2.76H24.31c1.52,0,2.76,1.24,2.76,2.76V24.31c0,1.52-1.24,2.76-2.76,2.76H7.04Z"/>
        <path class="cls-1" d="M1.07,16.07V3.92c0-1.57,1.28-2.85,2.85-2.85H21.73c1.57,0,2.85,1.28,2.85,2.85v.89"/>
        <path class="cls-2" d="M16.58,18.8c.45,.73,.93,1.43,1.96,1.43,.87,0,1.32-.43,1.32-1.03,0-.72-.47-.97-1.42-1.39l-.52-.22c-1.51-.64-2.51-1.45-2.51-3.15,0-1.57,1.19-2.76,3.06-2.76,1.33,0,2.28,.46,2.97,1.67l-1.63,1.04c-.36-.64-.74-.89-1.34-.89s-1,.39-1,.89c0,.63,.39,.88,1.28,1.27l.52,.22c1.78,.76,2.78,1.54,2.78,3.28,0,1.88-1.48,2.91-3.46,2.91s-3.04-.98-3.65-2.19l1.64-1.09Z"/>
        <path class="cls-2" d="M8.99,18.85c.33,.59,.84,1.04,1.56,1.04s1.09-.27,1.09-1.33v-6.88h2.19v7.22c0,2.19-1.28,3.18-3.16,3.18-1.69,0-2.91-1.13-3.41-2.19l1.72-1.04Z"/>
      </g>
    </g>
  </g>
</svg>